# AST/ASF file generated using VICON BodyLanguage
# -----------------------------------------------
:version 1.10
:name VICON
:units
  mass 1.0
  length 0.45
  angle deg
:documentation
   .ast/.asf automatically generated from VICON data using
   VICON BodyBuilder and BodyLanguage model FoxedUp or BRILLIANT.MOD
:root
   order TX TY TZ RX RY RZ
   axis XYZ
   position 0 0 0  
   orientation 0 0 0 
:bonedata
  begin
     id 1 
     name lhipjoint
     direction 0.623415 -0.642378 0.445763 
     length 2.49859 
     axis 0 0 0  XYZ
  end
  begin
     id 2 
     name lfemur
     direction 0.34202 -0.939693 0  
     length 6.69689  
     axis 0 0 20  XYZ
    dof rx ry rz
    limits (-160.0 20.0)
           (-70.0 70.0)
           (-60.0 70.0)
  end
  begin
     id 3 
     name ltibia
     direction 0.34202 -0.939693 0   
     length 7.37574   
     axis 0 0 20   XYZ
    dof rx
    limits (-10.0 170.0)
  end
  begin
     id 4 
     name lfoot
     direction 0.084323 -0.231675 0.969132   
     length 2.09111   
     axis -90 7.62852e-016 20   XYZ
    dof rx rz
    limits (-45.0 90.0)
           (-70.0 20.0)
  end
  begin
     id 5 
     name ltoes
     direction 1.5357e-011 -4.21957e-011 1   
     length 1.04989   
     axis -90 7.62852e-016 20   XYZ
    dof rx
    limits (-90.0 20.0)
  end
  begin
     id 6 
     name rhipjoint
     direction -0.605402 -0.653903 0.45376   
     length 2.45455  
     axis 0 0 0  XYZ 
  end
  begin
     id 7 
     name rfemur
     direction -0.34202 -0.939693 0   
     length 6.64523   
     axis 0 0 -20   XYZ
    dof rx ry rz
    limits (-160.0 20.0)
           (-70.0 70.0)
           (-70.0 60.0)
  end
  begin
     id 8 
     name rtibia
     direction -0.34202 -0.939693 0   
     length 7.3339   
     axis 0 0 -20   XYZ
    dof rx
    limits (-10.0 170.0)
 end
 begin
     id 9 
     name rfoot
     direction -0.120854 -0.332043 0.93549   
     length 2.23135  
     axis -90 -7.62852e-016 -20   XYZ
    dof rx rz
    limits (-45.0 90.0)
           (-20.0 70.0)
  end
  begin
     id 10 
     name rtoes
     direction -1.53563e-011 -4.21914e-011 1   
     length 1.10614   
     axis -90 -7.62852e-016 -20   XYZ
    dof rx
    limits (-90.0 20.0)
  end
  begin
     id 11 
     name lowerback
     direction 0.0319682 0.998615 -0.0417941   
     length 2.02718   
     axis 0 0 0   XYZ
    dof rx ry rz
    limits (-20.0 45.0)
           (-30.0 30.0)
           (-30.0 30.0)
  end
  begin
     id 12 
     name upperback
     direction 7.63181e-005 0.995808 0.0914691   
     length 1.97539   
     axis 0 0 0   XYZ
    dof rx ry rz
    limits (-20.0 45.0)
           (-30.0 30.0)
           (-30.0 30.0)
  end
  begin
     id 13 
     name thorax
     direction -0.016423 0.993627 0.111514   
     length 2.00349   
     axis 0 0 0   XYZ
    dof rx ry rz
    limits (-20.0 45.0)
           (-30.0 30.0)
           (-30.0 30.0)
  end
  begin
     id 14 
     name lowerneck
     direction -0.174763 0.981668 -0.0760716   
     length 1.71436   
     axis 0 0 0   XYZ
    dof rx ry rz
    limits (-20.0 45.0)
           (-30.0 30.0)
           (-30.0 30.0)
  end
  begin
     id 15 
     name upperneck
     direction 0.345458 0.934587 -0.0848868   
     length 1.72805   
     axis 0 0 0   XYZ
    dof rx ry rz
    limits (-20.0 45.0)
           (-30.0 30.0)
           (-30.0 30.0)
  end
  begin
     id 16
     name head
     direction 0.13001 0.989848 -0.0574291  
     length 1.767  
     axis 0 0 0   XYZ
    dof rx ry rz
    limits (-20.0 45.0)
           (-30.0 30.0)
           (-30.0 30.0)
  end
  begin
     id 17 
     name lclavicle
     direction 0.952951 0.290122 0.0878234  
     length 3.54654  
     axis 0 0 0   XYZ
    dof ry rz
    limits (-20.0 10.0)
           (0.0 20.0)
  end
  begin
     id 18 
     name lhumerus
     direction 1 -4.48957e-011 -4.56525e-028   
     length 5.19807   
     axis 180 -30 -90   XYZ
    dof rx ry rz
    limits (-60.0 90.0)
           (-90.0 90.0)
           (-90.0 90.0)
  end
  begin
     id 19
     name lradius
     direction 1 -4.48979e-011 -2.0317e-027   
     length 3.0937   
     axis 180 -30 -90   XYZ
    dof rx
    limits (-10.0 170.0)
  end
  begin
     id 20
     name lwrist
     direction 1 -4.48953e-011 -3.05809e-027   
     length 1.54685   
     axis 8.48514e-016 90 90   XYZ
    dof ry
    limits (-180.0 0.0)
 end
  begin
     id 21 
     name lhand
     direction 1 -4.48952e-011 -6.11639e-027   
     length 0.672632   
     axis 3.9013e-015 90 90   XYZ
    dof rx rz
    limits (-90.0 90.0)
           (-45.0 45.0)
  end
  begin
     id 22 
     name lfingers
     direction 1 -4.48925e-011 -1.22426e-026   
     length 0.542293   
     axis 7.80276e-015 90 90   XYZ
    dof rx
    limits (0.0 90.0)
  end
  begin
     id 23
     name lthumb
     direction 0.707107 -6.3486e-011 0.707107   
     length 0.778628   
     axis -90 45 5.37419e-014   XYZ
    dof rx rz
    limits (-45.0 45.0)
           (-45.0 45.0)
  end
  begin
     id 24 
     name rclavicle
     direction -0.960732 0.273675 -0.0457849   
     length 3.52079  
     axis 0 0 0   XYZ 
    dof ry rz
    limits (-10.0 20.0)
           (-20.0 0.0)
  end
  begin
     id 25 
     name rhumerus
     direction -1 -4.48976e-011 -1.63613e-027  
     length 5.45222   
     axis 180 30 90   XYZ
    dof rx ry rz
    limits (-90.0 60.0)
           (-90.0 90.0)
           (-90.0 90.0)
  end
  begin
     id 26 
     name rradius
     direction -1 -4.48957e-011 -7.00033e-028   
     length 3.01284   
     axis 180 30 90   XYZ
    dof rx
    limits (-10.0 170.0)
  end
  begin
     id 27 
     name rwrist
     direction -1 -4.48983e-011 -3.05543e-027   
     length 1.50642   
     axis 8.48514e-016 -90 -90   XYZ
    dof ry
    limits (-180.0 0.0)
  end
  begin
     id 28
     name rhand
     direction -1 -4.48984e-011 -6.11072e-027   
     length 0.622296   
     axis 3.9013e-015 -90 -90   XYZ
    dof rx rz
    limits (-90.0 90.0)
           (-45.0 45.0)
  end
  begin
     id 29
     name rfingers
     direction -1 -4.48865e-011 -1.22637e-026   
     length 0.501711   
     axis 7.80276e-015 -90 -90   XYZ
    dof rx
    limits (0.0 90.0)
  end
  begin
     id 30
     name rthumb
     direction -0.707107 -6.34932e-011 0.707107   
     length 0.72036   
     axis -90 -45 -5.37419e-014   XYZ
    dof rx rz
    limits (-45.0 45.0)
           (-45.0 45.0)
  end
:hierarchy
  begin
    root lhipjoint rhipjoint lowerback
    lhipjoint lfemur
    lfemur ltibia
    ltibia lfoot
    lfoot ltoes
    rhipjoint rfemur
    rfemur rtibia
    rtibia rfoot
    rfoot rtoes
    lowerback upperback
    upperback thorax
    thorax lowerneck lclavicle rclavicle
    lowerneck upperneck
    upperneck head
    lclavicle lhumerus
    lhumerus lradius
    lradius lwrist
    lwrist lhand lthumb
    lhand lfingers
    rclavicle rhumerus
    rhumerus rradius
    rradius rwrist
    rwrist rhand rthumb
    rhand rfingers
  end

#!OML:ASF H:\Not Pregnant\Project 1\Capture day 1\Session 1\non-pregnant.ASF
:FULLY-SPECIFIED
:DEGREES
216
root -6.36109 16.0609 15.6155 -174.494 -0.648054 -184.306
lowerback 1.89358 0.722526 -2.12589
upperback -5.68305 0.398417 -2.04863
thorax -6.98833 0.108833 -0.963846
lowerneck 25.1057 -5.02902 -31.1692
upperneck -10.1361 -17.9859 42.2276
head 0.25548 -12.9845 23.845
rclavicle -5.35476e-015 -1.53064e-014
rhumerus -42.4471 -10.0428 -76.7488
rradius 22.6866
rwrist 26.3417
rhand -7.72877 -2.07507
rfingers 7.12502
rthumb 18.1698 -31.2464
lclavicle -5.35476e-015 -1.53064e-014
lhumerus -37.2567 -6.27171 85.9011
lradius 32.8639
lwrist 36.0685
lhand -18.034 -12.1298
lfingers 7.12502
lthumb 8.23756 17.6896
rfemur -42.8365 -6.59743 18.7954
rtibia 64.2724
rfoot -11.8009 -6.97335
rtoes -19.8028
lfemur -10.1249 1.41883 -30.0543
ltibia 25.6975
lfoot -20.2921 -17.7835
ltoes 4.62724
217
root -6.3581 16.0621 15.4844 -174.475 -0.80341 -184.398
lowerback 1.92651 0.637705 -2.35812
upperback -5.66827 0.271895 -2.03419
thorax -6.99449 0.0597516 -0.808974
lowerneck 25.1161 -5.01134 -31.1664
upperneck -10.0819 -17.9779 42.2144
head 0.260733 -12.9811 23.8378
rclavicle 4.79568e-015 -8.34896e-015
rhumerus -42.4008 -9.94015 -76.794
rradius 22.8919
rwrist 26.1351
rhand -7.7101 -1.98378
rfingers 7.12502
rthumb 18.1878 -31.1535
lclavicle 4.79568e-015 -8.34896e-015
lhumerus -36.8884 -6.44142 85.9761
lradius 33.1583
lwrist 36.2554
lhand -17.9595 -12.0823
lfingers 7.12502
lthumb 8.3094 17.7343
rfemur -43.3205 -6.28515 18.7537
rtibia 62.0915
rfoot -11.7776 -6.98113
rtoes -19.8338
lfemur -9.26932 1.51034 -30.086
ltibia 25.0064
lfoot -20.324 -18.1186
ltoes 4.41788
218
root -6.35434 16.0636 15.3526 -174.416 -0.971883 -184.464
lowerback 1.93513 0.553619 -2.56521
upperback -5.66903 0.146202 -2.02109
thorax -7.002 0.0089244 -0.669458
lowerneck 25.1162 -5.00491 -31.1432
upperneck -10.0289 -17.9793 42.2032
head 0.269779 -12.9833 23.8215
rclavicle -1.18028e-015 -5.06901e-015
rhumerus -42.3493 -9.90493 -76.8215
rradius 23.0704
rwrist 26.0287
rhand -7.71544 -1.86025
rfingers 7.12502
rthumb 18.1826 -31.0304
lclavicle -1.18028e-015 -5.06901e-015
lhumerus -36.5521 -6.63992 86.0572
lradius 33.4944
lwrist 36.4356
lhand -17.8885 -11.9654
lfingers 7.12502
lthumb 8.37795 17.8484
rfemur -43.7485 -5.97697 18.7245
rtibia 59.7271
rfoot -11.6701 -6.81455
rtoes -20.0277
lfemur -8.46746 1.60023 -30.0793
ltibia 24.3301
lfoot -20.3462 -18.4877
ltoes 4.15436
219
root -6.3502 16.0656 15.2188 -174.333 -1.14067 -184.504
lowerback 1.91389 0.47208 -2.74132
upperback -5.67547 0.0256994 -2.00962
thorax -6.99721 -0.0415497 -0.549202
lowerneck 25.1018 -5.00866 -31.1021
upperneck -9.9734 -17.9881 42.1922
head 0.283425 -12.9893 23.795
rclavicle -6.83322e-016 1.72943e-014
rhumerus -42.2901 -9.94351 -76.8287
rradius 23.2242
rwrist 26.0103
rhand -7.73988 -1.70829
rfingers 7.12502
rthumb 18.1591 -30.8806
lclavicle -6.83322e-016 1.72943e-014
lhumerus -36.243 -6.84709 86.1326
lradius 33.8513
lwrist 36.6398
lhand -17.7799 -11.8707
lfingers 7.12502
lthumb 8.48272 17.9389
rfemur -44.0958 -5.6672 18.7039
rtibia 57.1875
rfoot -11.4976 -6.47635
rtoes -20.3687
lfemur -7.69272 1.68244 -30.0367
ltibia 23.662
lfoot -20.3518 -18.8814
ltoes 3.96708
220
root -6.34555 16.0675 15.0833 -174.222 -1.31633 -184.53
lowerback 1.8682 0.391268 -2.90141
upperback -5.6934 -0.0940271 -2.00148
thorax -6.98979 -0.0933133 -0.441467
lowerneck 25.076 -5.02077 -31.047
upperneck -9.92124 -18.0027 42.1836
head 0.299694 -12.9986 23.7624
rclavicle 3.10601e-015 -1.39149e-014
rhumerus -42.2419 -10.0296 -76.8275
rradius 23.3734
rwrist 26.0283
rhand -7.77391 -1.57031
rfingers 7.12502
rthumb 18.1264 -30.7457
lclavicle 3.10601e-015 -1.39149e-014
lhumerus -35.9659 -7.05367 86.2023
lradius 34.2247
lwrist 36.8534
lhand -17.6248 -11.825
lfingers 7.12502
lthumb 8.63245 17.9785
rfemur -44.3672 -5.36406 18.6794
rtibia 54.4889
rfoot -11.2817 -5.97926
rtoes -20.8747
lfemur -6.94208 1.75279 -29.9702
ltibia 22.9945
lfoot -20.3549 -19.2882
ltoes 3.73705
221
root -6.34066 16.0699 14.9454 -174.091 -1.48623 -184.541
lowerback 1.79406 0.315819 -3.04219
upperback -5.71847 -0.205749 -1.99651
thorax -6.97294 -0.142894 -0.348559
lowerneck 25.0402 -5.04154 -30.976
upperneck -9.8657 -18.0214 42.1692
head 0.317897 -13.0089 23.7173
rclavicle -8.03835e-015 -1.00386e-014
rhumerus -42.1942 -10.1765 -76.8103
rradius 23.4977
rwrist 26.075
rhand -7.81739 -1.43951
rfingers 7.12502
rthumb 18.0845 -30.6188
lclavicle -8.03835e-015 -1.00386e-014
lhumerus -35.7175 -7.26554 86.271
lradius 34.6101
lwrist 37.0848
lhand -17.4447 -11.8184
lfingers 7.12502
lthumb 8.80625 17.9779
rfemur -44.5546 -5.05672 18.6512
rtibia 51.646
rfoot -11.0427 -5.34595
rtoes -21.5313
lfemur -6.20069 1.8042 -29.8811
ltibia 22.3127
lfoot -20.3216 -19.7123
ltoes 3.5314
222
root -6.33534 16.0726 14.8057 -173.941 -1.64964 -184.549
lowerback 1.69989 0.241047 -3.18693
upperback -5.76112 -0.318387 -1.98932
thorax -6.96287 -0.193441 -0.251279
lowerneck 25.0129 -5.05386 -30.9048
upperneck -9.79868 -18.0301 42.1442
head 0.33098 -13.013 23.6682
rclavicle 1.77664e-015 1.08338e-014
rhumerus -42.1684 -10.3609 -76.7717
rradius 23.6064
rwrist 26.1384
rhand -7.87323 -1.33426
rfingers 7.12502
rthumb 18.0308 -30.5185
lclavicle 1.77664e-015 1.08338e-014
lhumerus -35.5198 -7.47172 86.3521
lradius 35.0193
lwrist 37.2971
lhand -17.3173 -11.745
lfingers 7.12502
lthumb 8.92919 18.046
rfemur -44.6634 -4.73623 18.6041
rtibia 48.6816
rfoot -10.7924 -4.60692
rtoes -22.314
lfemur -5.46371 1.83462 -29.785
ltibia 21.6055
lfoot -20.2429 -20.1417
ltoes 3.31183
223
root -6.32985 16.076 14.6639 -173.774 -1.81122 -184.549
lowerback 1.57329 0.166627 -3.32347
upperback -5.81299 -0.430102 -1.98061
thorax -6.94336 -0.244654 -0.157339
lowerneck 24.9898 -5.06377 -30.8239
upperneck -9.72795 -18.0284 42.1054
head 0.33624 -13.0096 23.6094
rclavicle -4.60932e-015 -1.43125e-014
rhumerus -42.157 -10.5825 -76.717
rradius 23.703
rwrist 26.1945
rhand -7.91623 -1.26912
rfingers 7.12502
rthumb 17.9894 -30.4571
lclavicle -4.60932e-015 -1.43125e-014
lhumerus -35.3485 -7.64621 86.4232
lradius 35.4053
lwrist 37.5227
lhand -17.1372 -11.7612
lfingers 7.12502
lthumb 9.10294 18.0224
rfemur -44.6921 -4.40282 18.5419
rtibia 45.6197
rfoot -10.5478 -3.78483
rtoes -23.2116
lfemur -4.71947 1.84274 -29.6771
ltibia 20.8593
lfoot -20.1113 -20.5745
ltoes 3.05836
224
root -6.32415 16.0798 14.5203 -173.601 -1.9602 -184.549
lowerback 1.43424 0.0965569 -3.46483
upperback -5.87473 -0.537044 -1.97067
thorax -6.9269 -0.293719 -0.0601746
lowerneck 24.9722 -5.06847 -30.7314
upperneck -9.65032 -18.0117 42.0504
head 0.331508 -12.9961 23.5398
rclavicle 3.72721e-017 1.07344e-014
rhumerus -42.1593 -10.8416 -76.6411
rradius 23.7772
rwrist 26.2334
rhand -7.95699 -1.22153
rfingers 7.12502
rthumb 17.9502 -30.4132
lclavicle 3.72721e-017 1.07344e-014
lhumerus -35.2116 -7.80146 86.4963
lradius 35.7769
lwrist 37.7403
lhand -16.9627 -11.7984
lfingers 7.12502
lthumb 9.2713 17.9777
rfemur -44.6395 -4.03219 18.4487
rtibia 42.4915
rfoot -10.3251 -2.9119
rtoes -24.1107
lfemur -3.95476 1.82951 -29.569
ltibia 20.0698
lfoot -19.9177 -20.9902
ltoes 2.73026
225
root -6.3188 16.0838 14.3741 -173.431 -2.10489 -184.55
lowerback 1.27863 0.0274882 -3.60551
upperback -5.93795 -0.642111 -1.96058
thorax -6.90204 -0.342267 0.036221
lowerneck 24.9583 -5.06688 -30.6288
upperneck -9.57272 -17.9771 41.983
head 0.314953 -12.9715 23.4638
rclavicle -6.29899e-015 2.46493e-014
rhumerus -42.1764 -11.1277 -76.549
rradius 23.8475
rwrist 26.2367
rhand -7.96855 -1.22529
rfingers 7.12502
rthumb 17.9391 -30.4179
lclavicle -6.29899e-015 2.46493e-014
lhumerus -35.1033 -7.92833 86.5723
lradius 36.1268
lwrist 37.9247
lhand -16.8147 -11.8312
lfingers 7.12502
lthumb 9.41412 17.9386
rfemur -44.5017 -3.63857 18.3219
rtibia 39.338
rfoot -10.1241 -2.00991
rtoes -25.0901
lfemur -3.14784 1.79725 -29.4669
ltibia 19.2283
lfoot -19.6736 -21.3753
ltoes 2.32777
